<svg xmlns="http://www.w3.org/2000/svg" xmlns:xlink="http://www.w3.org/1999/xlink" version="1.1" x="0px" y="0px" viewBox="0 0 136 170" style="enable-background:new 0 0 136 136;" xml:space="preserve"><g><path d="M39.11,13.27c0.41,0,0.75-0.34,0.75-0.75V9.24c0-0.41-0.34-0.75-0.75-0.75c-0.41,0-0.75,0.34-0.75,0.75v3.29   C38.36,12.94,38.69,13.27,39.11,13.27z"/><path d="M31.44,17.88c0.09,0.33,0.39,0.55,0.72,0.55c0.04,0,0.15-0.01,0.19-0.02c0.19-0.05,0.36-0.17,0.46-0.35   c0.1-0.17,0.13-0.38,0.08-0.57l-0.83-3.11c-0.05-0.19-0.18-0.36-0.36-0.46c-0.17-0.1-0.38-0.12-0.56-0.07   c-0.19,0.05-0.35,0.18-0.45,0.35c-0.1,0.17-0.13,0.38-0.07,0.57L31.44,17.88z"/><path d="M25.7,21.86c0.13,0.23,0.38,0.37,0.65,0.37c0.13,0,0.26-0.03,0.37-0.1c0.36-0.21,0.48-0.67,0.27-1.02l-2.2-3.8   c-0.1-0.18-0.26-0.3-0.46-0.35c-0.19-0.05-0.4-0.02-0.56,0.08c-0.36,0.21-0.48,0.67-0.27,1.02L25.7,21.86z"/><path d="M16.63,22.18c0.14,0.14,0.33,0.22,0.53,0.22c0.2,0,0.39-0.08,0.53-0.22c0.14-0.14,0.22-0.33,0.22-0.53   c0-0.2-0.08-0.39-0.22-0.53l-2.34-2.34c-0.14-0.14-0.33-0.22-0.53-0.22h0c-0.2,0-0.39,0.08-0.53,0.22c-0.29,0.29-0.29,0.77,0,1.06   L16.63,22.18z"/><path d="M13.75,29.82l3.45,1.99c0.11,0.07,0.25,0.1,0.38,0.1c0.27,0,0.52-0.14,0.65-0.37c0.21-0.36,0.08-0.82-0.27-1.02l-3.45-1.99   c-0.17-0.1-0.37-0.13-0.57-0.08c-0.2,0.05-0.36,0.18-0.46,0.35c-0.1,0.17-0.13,0.38-0.07,0.57C13.45,29.56,13.58,29.72,13.75,29.82   z"/><path d="M11.61,37l4.17,1.12c0.04,0.01,0.17,0.03,0.21,0.03c0.34,0,0.64-0.23,0.72-0.55c0.05-0.19,0.03-0.4-0.07-0.57   c-0.1-0.17-0.26-0.3-0.45-0.35L12,35.56c-0.19-0.06-0.4-0.03-0.57,0.07c-0.17,0.1-0.3,0.27-0.36,0.46   c-0.05,0.19-0.03,0.4,0.07,0.57C11.25,36.83,11.42,36.95,11.61,37z"/><path d="M12.98,43.6c0-0.41-0.34-0.75-0.75-0.75H4.75C4.34,42.85,4,43.18,4,43.6c0,0.41,0.34,0.75,0.75,0.75h7.49   C12.65,44.35,12.98,44.01,12.98,43.6z"/><path d="M17.53,48.82c-0.17-0.1-0.38-0.12-0.56-0.07l-6.02,1.61c-0.4,0.11-0.64,0.52-0.53,0.92c0.09,0.33,0.39,0.56,0.72,0.56   c0.04,0,0.16-0.01,0.19-0.02l6.02-1.61c0.4-0.11,0.64-0.52,0.53-0.92C17.83,49.09,17.7,48.92,17.53,48.82z"/><path d="M59.77,32.42c0.13,0,0.26-0.03,0.37-0.1l3.63-2.1c0.36-0.21,0.48-0.67,0.27-1.02c-0.21-0.36-0.67-0.48-1.02-0.27l-3.63,2.1   c-0.17,0.1-0.3,0.26-0.35,0.45c-0.05,0.19-0.03,0.4,0.07,0.57C59.25,32.27,59.5,32.42,59.77,32.42z"/><path d="M19.7,55.41c0.05-0.19,0.02-0.4-0.08-0.57c-0.1-0.18-0.26-0.3-0.46-0.35c-0.19-0.05-0.4-0.02-0.56,0.08l-4.16,2.4   c-0.36,0.21-0.48,0.67-0.27,1.02c0.13,0.23,0.38,0.38,0.65,0.38c0.13,0,0.27-0.04,0.37-0.1l4.16-2.4   C19.52,55.77,19.65,55.61,19.7,55.41z"/><path d="M60.35,23.1c0.2,0,0.39-0.08,0.53-0.22l3.05-3.05c0.29-0.29,0.29-0.77,0-1.06c-0.14-0.14-0.33-0.22-0.53-0.22h0   c-0.2,0-0.39,0.08-0.53,0.22l-3.05,3.05c-0.14,0.14-0.22,0.33-0.22,0.53c0,0.2,0.08,0.39,0.22,0.53   C59.97,23.02,60.15,23.1,60.35,23.1z"/><path d="M18.19,63.77c-0.2,0-0.39,0.08-0.53,0.22l-3.37,3.38c-0.14,0.14-0.22,0.33-0.22,0.53c0,0.2,0.08,0.39,0.22,0.53   c0.14,0.14,0.33,0.22,0.53,0.22c0.2,0,0.39-0.08,0.53-0.22l3.38-3.38c0.29-0.29,0.29-0.77,0-1.06   C18.58,63.85,18.39,63.77,18.19,63.77L18.19,63.77z"/><path d="M49.49,25.62c0.11,0.06,0.24,0.1,0.37,0.1c0.27,0,0.52-0.14,0.65-0.38l1.92-3.33c0.1-0.17,0.13-0.37,0.08-0.57   c-0.05-0.19-0.18-0.36-0.35-0.46c-0.17-0.1-0.37-0.13-0.57-0.08c-0.19,0.05-0.36,0.18-0.46,0.35l-1.92,3.33   C49,24.96,49.13,25.41,49.49,25.62z"/><path d="M26.43,66.3c0.27,0,0.52-0.14,0.65-0.37l1.58-2.74c0.1-0.17,0.13-0.38,0.07-0.57s-0.18-0.36-0.35-0.45   c-0.17-0.1-0.38-0.13-0.57-0.08c-0.19,0.05-0.36,0.17-0.46,0.35l-1.58,2.74c-0.21,0.36-0.08,0.82,0.28,1.03   C26.18,66.26,26.31,66.3,26.43,66.3z"/><path d="M44.84,22.21c0.04,0.01,0.15,0.02,0.19,0.02c0.34,0,0.64-0.23,0.72-0.56l1.31-4.88c0.05-0.19,0.03-0.4-0.07-0.57   c-0.1-0.17-0.26-0.3-0.45-0.35c-0.2-0.05-0.4-0.03-0.57,0.08c-0.17,0.1-0.3,0.26-0.35,0.46l-1.31,4.88   C44.2,21.69,44.44,22.1,44.84,22.21z"/><path d="M41.51,46.85c0,1.32-1.08,2.4-2.4,2.4c-1.32,0-2.39-1.08-2.39-2.4c0-0.45,0.12-0.87,0.35-1.23   c0.11,0.21,0.32,0.35,0.56,0.35c0.35,0,0.63-0.29,0.63-0.63c0-0.24-0.14-0.44-0.33-0.54c0.35-0.21,0.75-0.33,1.19-0.33   C40.43,44.46,41.51,45.53,41.51,46.85z"/><path d="M49.28,46.56c-2.73-3.72-6.47-5.59-10.19-5.62c-3.72,0.02-7.47,1.9-10.19,5.62c-0.1,0.12-0.1,0.32-0.01,0.46   c2.73,3.85,6.45,5.76,10.2,5.76c3.76,0,7.48-1.91,10.2-5.76C49.37,46.89,49.37,46.68,49.28,46.56z M39.08,50.41   c-4.6-0.07-4.6-7.05,0-7.12C43.69,43.36,43.69,50.35,39.08,50.41z"/><path d="M63.08,58.01c1.78-3.71,4.14-7.1,7.03-9.97c2.87-2.9,6.26-5.25,9.97-7.03c3.72-1.77,7.76-2.9,12.02-3.51   c-4.26-0.59-8.73-0.06-12.88,1.44c-4.16,1.47-7.98,3.95-11.14,7.07c-3.12,3.16-5.59,6.98-7.07,11.14   c-1.5,4.15-2.04,8.61-1.45,12.88C60.17,65.78,61.31,61.73,63.08,58.01z"/><path d="M90.57,64.12C90.57,64.12,90.57,64.12,90.57,64.12c-0.16,0-0.31,0.09-0.39,0.23C89.68,65.21,78,85.51,78,92.36   c0,6.54,4.94,10.76,12.58,10.76c7.61,0,12.53-4.23,12.53-10.76c0-6.85-11.64-27.15-12.14-28.02   C90.88,64.21,90.73,64.12,90.57,64.12z M94.04,101.87c1.54-0.83,2.56-2.28,2.56-4.35c0-3.4-6.04-13.9-6.04-13.9   s-6.06,10.49-6.06,13.9c0,2.06,1.01,3.52,2.55,4.35c-5.05-1.08-8.15-4.57-8.15-9.5c0-5.92,9.6-23.21,11.67-26.88   c2.07,3.66,11.63,20.96,11.63,26.88C102.2,97.3,99.09,100.79,94.04,101.87z"/><path d="M43.04,99.77c-2.15-3.21-1.71-7.6,0.91-10.23c-1.38,0.14-2.75,0.68-3.97,1.63c-3.71,2.88-4.54,8.44-1.87,12.42   c2.67,3.98,7.84,4.89,11.55,2.01c1.22-0.94,2.12-2.17,2.69-3.54C49.21,103.9,45.19,102.98,43.04,99.77z"/><path d="M118.65,115.75h-2.7v-8.19c0-1.46-0.96-2.69-2.28-3.13C125.17,96.7,132,83.93,132,70.03c0-22.86-18.6-41.46-41.45-41.46   c-8.5,0-16.4,2.58-22.99,6.97c-0.04-0.02-0.06-0.06-0.1-0.08c-0.17-0.11-0.37-0.13-0.58-0.08l-3.7,0.98   c-0.19,0.06-0.35,0.19-0.44,0.36c-0.1,0.18-0.12,0.38-0.06,0.56c0.08,0.32,0.38,0.54,0.79,0.54c0.04,0,0.07,0,0.12-0.01l1.36-0.36   c-2.05,1.62-3.95,3.42-5.67,5.39H50.2l-0.73-1.24l9.26-2.48c0.38-0.12,0.61-0.5,0.52-0.94c-0.12-0.4-0.54-0.61-0.92-0.5l-9.63,2.58   l-0.59-0.98l8.54-4.93c0.17-0.1,0.3-0.26,0.35-0.46c0.05-0.19,0.02-0.38-0.08-0.56c-0.2-0.36-0.66-0.49-1.02-0.28l-8.54,4.93   L46.77,37l10.02-10.02c0.29-0.29,0.29-0.76-0.01-1.06c-0.29-0.29-0.76-0.29-1.06,0l-9.74,9.75l-0.72-1.22l3.19-5.53   c0.2-0.35,0.1-0.82-0.26-1.03c-0.17-0.11-0.37-0.13-0.56-0.08c-0.2,0.06-0.37,0.19-0.47,0.36l-2.77,4.79l-1.14-1.94l1.8-6.67   c0.06-0.19,0.04-0.41-0.07-0.59c-0.11-0.17-0.28-0.3-0.44-0.34c-0.19-0.06-0.41-0.04-0.59,0.07c-0.17,0.1-0.3,0.26-0.34,0.44   l-1.42,5.28l-2.33-3.99v-9.09c0-0.41-0.35-0.76-0.76-0.76c-0.41,0-0.74,0.35-0.74,0.76v9.11l-2.34,3.97l-2.3-8.63   c-0.05-0.2-0.18-0.37-0.35-0.47c-0.18-0.11-0.4-0.13-0.55-0.08c-0.2,0.05-0.38,0.18-0.48,0.35c-0.11,0.18-0.13,0.4-0.07,0.58   l2.7,10.07l-1.14,1.93L29,24.59c-0.1-0.17-0.26-0.3-0.46-0.35c-0.19-0.05-0.38-0.02-0.56,0.08c-0.17,0.1-0.3,0.26-0.35,0.44   c-0.05,0.2-0.02,0.4,0.08,0.58l5.25,9.09l-0.73,1.22l-11.2-11.2c-0.13-0.14-0.32-0.24-0.53-0.24c-0.2,0.01-0.4,0.07-0.54,0.22   c-0.14,0.14-0.23,0.34-0.23,0.53c0,0.2,0.08,0.4,0.23,0.54L31.45,37l-0.56,0.98l-9.56-5.51c-0.36-0.22-0.82-0.1-1.02,0.26   c-0.22,0.36-0.1,0.82,0.26,1.03l9.54,5.51l-0.58,0.97l-8.85-2.36c-0.19-0.06-0.41-0.04-0.59,0.07s-0.3,0.28-0.34,0.44   c-0.06,0.19-0.04,0.41,0.07,0.59c0.1,0.17,0.26,0.3,0.44,0.34l8.48,2.27l-0.73,1.25h-9.05c-0.41,0-0.74,0.34-0.74,0.76   c0,0.41,0.34,0.74,0.74,0.74h8.16l-1.16,2l-4.33,1.15c-0.2,0.05-0.37,0.18-0.48,0.35c-0.11,0.18-0.13,0.4-0.07,0.58   c0.08,0.32,0.38,0.55,0.72,0.55c0.04,0,0.17-0.01,0.2-0.02l2.88-0.77l-4.6,7.83c-0.12,0.22-0.12,0.49,0.02,0.79   c0.16,0.2,0.4,0.32,0.64,0.32h3.54l-4.07,4.08c-0.14,0.14-0.23,0.34-0.23,0.54c0,0.2,0.08,0.4,0.23,0.54c0.1,0.1,0.26,0.2,0.53,0.2   c0.23,0,0.42-0.08,0.53-0.2l5.15-5.16h3.79l-0.89,1.55c-0.22,0.36-0.1,0.82,0.3,1.04c0.1,0.05,0.23,0.07,0.35,0.07   c0.28,0,0.54-0.14,0.64-0.36l1.33-2.3h2.55l-1.61,6c-0.04,0.19,0,0.41,0.11,0.58c0.1,0.17,0.26,0.28,0.36,0.29   c0.06,0.02,0.19,0.05,0.26,0.05c0.34,0,0.64-0.22,0.72-0.54l1.72-6.37h2.1v10.94l-5.39,1.5l-0.04-0.01l0.4-1.48   c0.08-0.41-0.14-0.8-0.56-0.92c-0.41-0.07-0.8,0.17-0.89,0.54l-0.43,1.61l-0.24-0.05l-0.12,0.83L8.37,76.4   C8.15,76.46,8,76.7,8.06,76.94l12.03,49.99c0.02,0.12,0.1,0.22,0.2,0.28c0.07,0.05,0.14,0.06,0.23,0.06c0.04,0,0.08,0,0.12-0.01   l13.97-3.88l23.81,4.14l1.14-7.59v6.89h61.97v-8.19C121.53,117.04,120.24,115.75,118.65,115.75z M67.61,36.61   c0.04-0.02,0.07-0.04,0.1-0.07c6.52-4.45,14.38-7.07,22.85-7.07c22.37,0,40.55,18.2,40.55,40.56c0,13.94-7.01,26.71-18.76,34.21   H68.75c-2.18-1.4-4.24-3.01-6.1-4.78l3.63-24.11l-16.19-2.82C50.03,71.71,50,70.87,50,70.03C50,56.18,56.97,43.93,67.61,36.61z    M49.17,72.39l-1.64-0.29l-0.71-2.64c-0.05-0.2-0.18-0.38-0.36-0.48c-0.18-0.11-0.38-0.13-0.56-0.07c-0.4,0.11-0.62,0.5-0.53,0.92   l0.53,1.98l-2.8-0.48l-0.94-3.84c-0.02-0.12-0.1-0.22-0.2-0.28c-0.11-0.07-0.23-0.08-0.35-0.05l-1.74,0.48V57.13h2.1l2.16,8.06   c0.08,0.34,0.37,0.56,0.72,0.56c0.04,0,0.16-0.01,0.19-0.02c0.19-0.06,0.36-0.18,0.46-0.35c0.11-0.17,0.13-0.38,0.07-0.58   l-2.05-7.67h2.55l2.87,4.98c0.12,0.24,0.38,0.38,0.66,0.38c0.07,0,0.14-0.02,0.2-0.05c-0.46,2.46-0.7,4.99-0.7,7.59   C49.09,70.81,49.13,71.61,49.17,72.39z M47.79,57.13h3.37c-0.43,1.3-0.79,2.62-1.09,3.96L47.79,57.13z M54.33,49.89l-1.01-1.72   l1.73,0.47C54.8,49.05,54.56,49.47,54.33,49.89z M58.04,44.34c-0.76,0.96-1.48,1.96-2.15,2.98l-3.65-0.97l-1.16-2H58.04z    M22.25,55.63L39.11,26.9L53.5,51.45c-0.68,1.36-1.3,2.75-1.82,4.18H22.25z M23.12,99.43c0.47,1.92,1.5,3.52,2.84,4.67l-2.12,14.13   c-0.3-0.06-0.61-0.08-0.92-0.05l-8.44-35.05c1.38-0.61,2.21-2.14,2.05-3.73l13.73-3.82l-2,13.29   C24.32,90.43,22.05,94.98,23.12,99.43z M54.8,118.46c-1.49-0.04-2.82,1.01-3.27,2.53l-19.72-3.43c0.04-1.6-0.94-3.04-2.35-3.52   l5.38-35.73c1.49,0.02,2.82-1.01,3.27-2.53l19.72,3.42c-0.02,1.6,0.94,3.04,2.35,3.52L54.8,118.46z M65.15,115.75h-2.7   c-1.04,0-1.96,0.58-2.46,1.4l2.5-16.61c1.54,1.42,3.18,2.73,4.92,3.89c-1.31,0.44-2.26,1.68-2.26,3.13V115.75z M115.05,115.3h-49   v-7.74c0-1.33,1.09-2.41,2.42-2.41h44.15c1.33,0,2.42,1.08,2.42,2.41V115.3z"/></g></svg>