<svg xmlns="http://www.w3.org/2000/svg" data-name="Capa 1" viewBox="0 0 221.33 276.6625" x="0px" y="0px" fill="#fff"><title>ojo</title><path d="M88.29,152.38v29.17a5.13,5.13,0,1,0,5,0V152.38h3.63V165a2.5,2.5,0,0,0,4.26,1.77l4.11-4.11v9.21a2.5,2.5,0,0,0,5,0V156.62a2.5,2.5,0,0,0-4.27-1.76l-4.1,4.1v-6.58h17.5V159l-4.11-4.1a2.5,2.5,0,0,0-4.27,1.76v15.25a2.5,2.5,0,0,0,5,0v-9.21l4.11,4.11a2.5,2.5,0,0,0,4.27-1.77V152.38H128v29.17a5.13,5.13,0,1,0,5,0V152.38h27.23L112.13,69h12.41V64h-6.12V29.25H103.79V64h-7v5H109.2L61.06,152.38ZM90.67,186h.25C90.92,186.14,90.67,186.14,90.67,186Zm39.75,0h.25C130.67,186.14,130.42,186.14,130.42,186ZM108.79,34.25h4.63V64h-4.63ZM69.72,147.38l20.57-35.63v.36l.09.34c1.56,5.56,7.89,16.07,20.66,16.07S129.7,117.93,131,112.33l.06-.3v-.28l20.57,35.63ZM112.45,122a14.08,14.08,0,0,0,0-19.76l-1.78-1.8-1.78,1.8a14.05,14.05,0,0,0,0,19.76l1.49,1.53c-10.11-.38-14-9.16-15-11.72C96.36,109.2,100.48,100,111,100s14.2,9.37,14.92,11.77c-.71,2.42-4.14,11.75-14.92,11.75h-.12Zm-1.78-6.07a9,9,0,0,1,0-7.61,9.14,9.14,0,0,1,0,7.61ZM111,95a20.18,20.18,0,0,0-14.5,5.92l14.13-24.46,13.52,23.43A19.17,19.17,0,0,0,111,95Z"/><path d="M99.53,128.25l-.23,18,11.54-6.38L122,145.77V128l-11.19,6.19Zm4.88,9.48,0-1.23,1.13.59ZM117,136.49v1l-.91-.49Z"/></svg>