<svg xmlns="http://www.w3.org/2000/svg" xmlns:xlink="http://www.w3.org/1999/xlink" version="1.1" x="0px" y="0px" viewBox="0 0 100 67" style="enable-background:new 0 0 100 53.6;" xml:space="preserve" fill="#ffffff"><path d="M91.5,40.8c-1.5-2.4-2.4-9.6-5.3-15.4c-2.9-5.7-6.2-8.3-11.7-14.3c-5.5-6-7.6-6.6-8.5-6  c-0.6,0.5-0.6,1.2-0.6,1.6c0,0.1-0.1,0.2-0.2,0.1C62.4,4.5,60.5,0,58,0.2c-1.2,0.1-1.9,1.2-1.9,2c0,0.1-0.1,0.1-0.1,0  c-1-1.6-2.2-2.9-3.9-1.9c-2,1.2-0.4,3.8,0.1,4.5c0.1,0.1,0,0.2-0.1,0.3c-0.4,0.2-1.3,0.8-1.5,2.2c-0.1,1.7,2,6.8,3.4,9.2  c1.4,2.5,4,6.5,5.4,8.4c1.1,1.6,3.4,5.3,4,6.4c0.1,0.1,0,0.3-0.2,0.2c-0.7-0.1-2.3-0.4-4.5-0.3c-3.3,0.2-5.3,2.3-6.5,3.6  c-1.1,1.3-1.1,3.4,0,3.4c1.3,0,4.1-1.8,6.3-1.8c1.6,0,5.4,1.1,6.7,1.6c1.3,0.5,4,2.9,6.1,4.2c2,1.3,5.9,2.7,7.5,3.9  c1.6,1.1,4,7.4,4,7.4H100C100,53.6,93,43.2,91.5,40.8z M59.6,34c0,0.1-0.1,0.2-0.2,0.1c-0.1,0-0.1-0.1-0.1-0.2c0.2-0.6,0-1.4,0-1.7  c0-0.1,0-0.2,0.1-0.2l0,0c0.1,0,0.2,0,0.2,0.1C59.7,32.5,59.8,33.3,59.6,34z M82.7,23.1L82.7,23.1c0,0.1,0,0.2-0.1,0.2  c-2.8,1-5.6,1.4-8,1.4c-4.3,0-7.6-1.1-8.4-1.4c-0.1,0-0.1-0.1-0.1-0.2l0,0c0-0.1,0.1-0.1,0.2-0.1c1.2,0.4,8.4,2.8,16.2,0  C82.5,23,82.6,23,82.7,23.1z M66.5,28.1c-0.1,0-0.2,0-0.2-0.1v0c0-0.1,0-0.2,0.1-0.2c1-0.3,6.6-1.6,13.4,0.7c0.1,0,0.1,0.1,0.1,0.2  l0,0c0,0.1-0.1,0.1-0.2,0.1C73,26.5,67.5,27.8,66.5,28.1z M78.9,33.3L78.9,33.3c-0.1,0.1-0.2,0-0.2-0.1c-1.7-2.8-3.5-4-4-4.3  c-0.1,0-0.1-0.2-0.1-0.2l0,0c0-0.1,0.2-0.1,0.2-0.1c0.5,0.3,2.4,1.6,4.2,4.5C79.1,33.1,79,33.2,78.9,33.3z M64.6,20.1  c-0.1,0.1-0.2,0-0.2-0.1l0,0c0-0.1,0-0.2,0.1-0.2c0.4-0.2,1.3-0.8,2-1.8c0.1-0.1,0.2-0.1,0.2,0c0.1,0.1,0.1,0.2,0,0.2  C65.9,19.2,65,19.9,64.6,20.1z M65.5,13.4c-0.1,0-0.2-0.1-0.2-0.2l0,0c0-0.1,0.1-0.2,0.1-0.2c0.4-0.1,1.3-0.3,2.3-1.5  c0.1-0.1,0.2-0.1,0.2,0c0.1,0.1,0.1,0.2,0,0.3C66.9,13,65.9,13.3,65.5,13.4z M68.3,17.6c0-0.1,0.1-0.2,0.2-0.2c0.5,0,1.7-0.2,3-0.8  c0.1,0,0.2,0,0.2,0.1c0,0.1,0,0.2-0.1,0.2c-1.3,0.7-2.6,0.8-3.1,0.8C68.4,17.8,68.3,17.7,68.3,17.6z M79.1,17.5c0.1,0,0.2,0,0.2,0.1  c0,0.1,0,0.2-0.1,0.2c-0.9,0.4-1.7,0.5-2.4,0.5c-1.2,0-2-0.3-2.4-0.5c-0.1,0-0.1-0.2-0.1-0.2l0,0c0-0.1,0.1-0.1,0.2-0.1  C75.1,17.7,77,18.4,79.1,17.5z M75.3,13.5c0.1,0.1,0.1,0.2,0,0.3c-1,1.1-1.9,1.4-2.3,1.5c-0.1,0-0.2-0.1-0.2-0.2l0,0  c0-0.1,0.1-0.2,0.1-0.2c0.3-0.1,1.2-0.3,2.1-1.4C75.1,13.4,75.2,13.4,75.3,13.5z M72.2,14.2c0.3-0.4,1-1.4,2.6-1.7  c0.1,0,0.2,0,0.2,0.1l0,0c0,0.1,0,0.2-0.1,0.2c-1.4,0.3-2.1,1.2-2.4,1.6c0,0.1-0.1,0.1-0.2,0.1l0,0C72.2,14.4,72.1,14.3,72.2,14.2z   M69.3,9.9L71,8.8c0.1-0.1,0.2,0,0.2,0c0.1,0.1,0,0.2,0,0.2l-1.7,1.1c-0.1,0.1-0.2,0-0.2,0C69.2,10.1,69.2,10,69.3,9.9z M66.1,7.6  c0.1-0.1,0.2,0,0.2,0c0.7,1,5.1,6.7,7.2,9.4c0.1,0.1,0,0.2,0,0.2h0c-0.1,0.1-0.2,0-0.2,0c-2.1-2.6-6.5-8.4-7.2-9.4  C66,7.7,66,7.6,66.1,7.6z M64.6,12.3c0.3-0.4,1.1-1.5,2.8-1.9c0.1,0,0.2,0,0.2,0.1v0c0,0.1,0,0.2-0.1,0.2c-1.6,0.3-2.4,1.3-2.6,1.7  c0,0.1-0.1,0.1-0.2,0.1l0,0C64.6,12.5,64.6,12.4,64.6,12.3z M60.4,6.4l1.9-1.3c0.1-0.1,0.2,0,0.2,0.1l0,0c0.1,0.1,0,0.2-0.1,0.2  l-1.9,1.3c-0.1,0.1-0.2,0-0.2-0.1l0,0C60.3,6.6,60.3,6.5,60.4,6.4z M56.9,3.8c0.1-0.1,0.2-0.1,0.2,0c0.9,1.1,7.5,9.1,9.9,13.1  c0.1,0.1,0,0.2-0.1,0.2l0,0c-0.1,0-0.2,0-0.2-0.1c-2.4-4-8.9-12-9.9-13.1C56.8,4,56.8,3.9,56.9,3.8z M59.5,13.7  c0.4-0.1,1.3-0.3,2.3-1.5c0.1-0.1,0.2-0.1,0.2,0c0.1,0.1,0.1,0.2,0,0.3c-1,1.3-2.1,1.6-2.5,1.6c-0.1,0-0.2-0.1-0.2-0.2l0,0  C59.3,13.8,59.4,13.7,59.5,13.7z M59,13.2c0,0.1-0.1,0.1-0.2,0.1l0,0c-0.1,0-0.1-0.2-0.1-0.3c0.3-0.4,1.1-1.5,2.8-1.9  c0.1,0,0.2,0,0.2,0.1l0,0c0,0.1,0,0.2-0.1,0.2C60,11.8,59.2,12.8,59,13.2z M54.5,6.8l2.2-1.4c0.1-0.1,0.2,0,0.2,0.1  c0.1,0.1,0,0.2-0.1,0.2l-2.2,1.4c-0.1,0.1-0.2,0-0.2-0.1C54.3,6.9,54.4,6.8,54.5,6.8z M54.9,11.1l-2,1.1c-0.1,0-0.2,0-0.2-0.1  c0-0.1,0-0.2,0.1-0.2l2-1.1c0.1,0,0.2,0,0.2,0.1C55,10.9,54.9,11,54.9,11.1z M55.9,18c-0.1,0.1-0.1,0.1-0.2,0.1l0,0  c-0.1,0-0.1-0.2-0.1-0.3c0.3-0.4,1.2-1.5,2.9-1.7c0.1,0,0.2,0.1,0.2,0.2c0,0.1-0.1,0.2-0.2,0.2C57,16.6,56.2,17.6,55.9,18z M59,17.4  c-1.1,1.2-2.2,1.4-2.6,1.5c-0.1,0-0.2-0.1-0.2-0.2c0,0,0,0,0,0c0-0.1,0.1-0.1,0.1-0.2c0.4,0,1.4-0.3,2.4-1.4c0.1-0.1,0.2-0.1,0.2,0  l0,0C59.1,17.2,59.1,17.3,59,17.4z M52.8,6.2c-0.1-0.1,0-0.2,0.1-0.2h0c0.1-0.1,0.2,0,0.2,0.1c0.8,1.3,7.1,10.7,10.5,14.4  c0.1,0.1,0.1,0.2,0,0.2l0,0c-0.1,0.1-0.2,0.1-0.3,0C59.9,16.9,53.6,7.5,52.8,6.2z M62.7,22c-0.8,1.2-2,2-2.4,2.2  c-0.1,0.1-0.2,0-0.2-0.1l0,0c0-0.1,0-0.2,0.1-0.2c0.4-0.2,1.5-1,2.3-2.1c0.1-0.1,0.2-0.1,0.2,0C62.8,21.9,62.8,22,62.7,22z   M68.1,32.8c-1.7,0-3.1-0.5-3.6-0.6c-0.1,0-0.1-0.1-0.1-0.2l0,0c0-0.1,0.1-0.1,0.2-0.1c0.4,0.2,1.8,0.6,3.5,0.6  c0.1,0,0.2,0.1,0.2,0.2C68.2,32.7,68.2,32.8,68.1,32.8z M77.2,33.3L77.2,33.3c-0.1,0.1-0.2,0.1-0.2,0c-5.2-5.5-12.3-3.6-13.5-3.2  c-0.1,0-0.2,0-0.2-0.1c0-0.1,0-0.2,0.1-0.2c1.2-0.4,8.5-2.3,13.8,3.3C77.3,33.1,77.3,33.2,77.2,33.3z M89.6,39.2  c-0.2,0.3-0.6,0.9-1.4,1.3c-0.4,0.2-0.8,0.3-1.2,0.3c-0.6,0.1-1.2,0.2-2.2,0.8c-0.5,0.3-1,0.6-1.6,1.1c-1.4,1-3.1,2.2-5,2.2  c0,0,0,0,0,0c-0.1,0-0.2-0.1-0.2-0.2v0c0-0.1,0.1-0.2,0.2-0.2c1.9,0,3.5-1.1,4.9-2.2c0.6-0.4,1.1-0.8,1.6-1.1  c1.1-0.6,1.8-0.7,2.3-0.8c0.4-0.1,0.7-0.1,1.1-0.3c0.7-0.3,1.1-0.9,1.3-1.2c0-0.1,0.1-0.1,0.2-0.1C89.6,39,89.6,39.1,89.6,39.2z   M0,53.6h17.3c0,0,2.3-6.3,4-7.4c1.6-1.1,5.4-2.6,7.5-3.9c2-1.3,4.7-3.6,6.1-4.2c1.3-0.5,5.1-1.6,6.7-1.6c2.2,0,4.9,1.8,6.3,1.8  c1.1,0,1.1-2.2,0-3.4c-1.1-1.3-3.2-3.4-6.5-3.6c-2.2-0.1-3.8,0.1-4.5,0.3c-0.1,0-0.2-0.1-0.2-0.2c0.7-1.1,2.9-4.8,4-6.4  c1.4-1.9,4-5.9,5.4-8.4c1.4-2.5,3.5-7.5,3.4-9.2c-0.1-1.5-1-2-1.5-2.2c-0.1,0-0.1-0.2-0.1-0.3c0.5-0.7,2.1-3.4,0.1-4.5  c-1.7-1-3,0.3-3.9,1.9c0,0.1-0.1,0-0.1,0c0-0.8-0.7-1.9-1.9-2c-2.5-0.2-4.4,4.4-7.2,6.6c-0.1,0.1-0.2,0-0.2-0.1c0-0.4,0-1.1-0.6-1.6  c-0.9-0.6-3,0-8.5,6s-8.8,8.6-11.7,14.3C11,31.2,10,38.4,8.5,40.8C7,43.2,0,53.6,0,53.6z M40.4,32.1c0-0.1,0.1-0.2,0.2-0.1l0,0  c0.1,0,0.1,0.1,0.1,0.2c-0.1,0.3-0.2,1.1,0,1.7c0,0.1,0,0.2-0.1,0.2c-0.1,0-0.2,0-0.2-0.1C40.2,33.3,40.3,32.5,40.4,32.1z M17.5,23  c7.7,2.8,15,0.4,16.2,0c0.1,0,0.2,0,0.2,0.1l0,0c0,0.1,0,0.2-0.1,0.2c-0.8,0.3-4.1,1.4-8.4,1.4c-2.4,0-5.2-0.3-8-1.4  c-0.1,0-0.1-0.1-0.1-0.2l0,0C17.4,23,17.5,23,17.5,23z M20.3,28.8c-0.1,0-0.2,0-0.2-0.1l0,0c0-0.1,0-0.2,0.1-0.2  c6.8-2.3,12.3-1,13.4-0.7c0.1,0,0.2,0.1,0.1,0.2v0c0,0.1-0.1,0.1-0.2,0.1C32.5,27.8,27,26.5,20.3,28.8z M21,33  c1.8-2.9,3.6-4.1,4.2-4.5c0.1-0.1,0.2,0,0.2,0.1l0,0c0,0.1,0,0.2-0.1,0.2c-0.5,0.3-2.3,1.6-4,4.3c-0.1,0.1-0.2,0.1-0.2,0.1l0,0  C21,33.2,20.9,33.1,21,33z M33.3,18.2c-0.1-0.1,0-0.2,0-0.2c0.1-0.1,0.2,0,0.2,0c0.7,1,1.6,1.6,2,1.8c0.1,0,0.1,0.2,0.1,0.2l0,0  c0,0.1-0.2,0.1-0.2,0.1C35,19.9,34.1,19.2,33.3,18.2z M32,11.7c-0.1-0.1-0.1-0.2,0-0.3c0.1-0.1,0.2,0,0.2,0c1,1.2,2,1.4,2.3,1.5  c0.1,0,0.1,0.1,0.1,0.2l0,0c0,0.1-0.1,0.2-0.2,0.2C34.1,13.3,33.1,13,32,11.7z M31.5,17.8c-0.5,0-1.8-0.2-3.1-0.8  c-0.1,0-0.1-0.2-0.1-0.2c0-0.1,0.2-0.1,0.2-0.1c1.2,0.6,2.5,0.8,3,0.8c0.1,0,0.2,0.1,0.2,0.2C31.7,17.7,31.6,17.8,31.5,17.8z   M25.4,17.5c0.1,0,0.2,0,0.2,0.1l0,0c0,0.1,0,0.2-0.1,0.2c-0.4,0.2-1.2,0.5-2.4,0.5c-0.7,0-1.5-0.1-2.4-0.5c-0.1,0-0.1-0.1-0.1-0.2  c0-0.1,0.1-0.1,0.2-0.1C23,18.4,24.9,17.7,25.4,17.5z M25,13.5c0.9,1,1.8,1.3,2.1,1.4c0.1,0,0.1,0.1,0.1,0.2l0,0  c0,0.1-0.1,0.2-0.2,0.2c-0.4-0.1-1.4-0.4-2.3-1.5c-0.1-0.1-0.1-0.2,0-0.3C24.8,13.4,24.9,13.4,25,13.5z M27.8,14.5L27.8,14.5  c-0.1,0-0.2,0-0.2-0.1c-0.2-0.3-0.9-1.3-2.4-1.6c-0.1,0-0.2-0.1-0.1-0.2l0,0c0-0.1,0.1-0.2,0.2-0.1c1.6,0.3,2.3,1.3,2.6,1.7  C27.9,14.3,27.8,14.4,27.8,14.5z M30.8,10.1c-0.1,0.1-0.2,0.1-0.2,0l-1.7-1.1c-0.1-0.1-0.1-0.2,0-0.2c0.1-0.1,0.2-0.1,0.2,0l1.7,1.1  C30.8,10,30.8,10.1,30.8,10.1z M34,7.8c-0.7,1-5.1,6.7-7.2,9.4c-0.1,0.1-0.2,0.1-0.2,0h0c-0.1-0.1-0.1-0.2,0-0.2  c2.1-2.6,6.5-8.4,7.2-9.4c0.1-0.1,0.2-0.1,0.2,0C34,7.6,34,7.7,34,7.8z M35.3,12.6L35.3,12.6c-0.1,0-0.2,0-0.2-0.1  c-0.2-0.4-1-1.4-2.6-1.7c-0.1,0-0.2-0.1-0.1-0.2v0c0-0.1,0.1-0.2,0.2-0.1c1.7,0.3,2.6,1.4,2.8,1.9C35.4,12.4,35.4,12.5,35.3,12.6z   M39.7,6.6L39.7,6.6c-0.1,0.1-0.2,0.1-0.2,0.1l-1.9-1.3c-0.1-0.1-0.1-0.2-0.1-0.2l0,0c0.1-0.1,0.2-0.1,0.2-0.1l1.9,1.3  C39.7,6.5,39.7,6.6,39.7,6.6z M43.1,4c-0.9,1.1-7.5,9-9.9,13.1c0,0.1-0.2,0.1-0.2,0.1l0,0c-0.1,0-0.1-0.2-0.1-0.2  c2.4-4.1,9-12,9.9-13.1c0.1-0.1,0.2-0.1,0.2,0C43.2,3.9,43.2,4,43.1,4z M40.7,13.8L40.7,13.8c0,0.1-0.1,0.2-0.2,0.2  c-0.4-0.1-1.5-0.4-2.5-1.6c-0.1-0.1-0.1-0.2,0-0.3c0.1-0.1,0.2,0,0.2,0c1,1.2,2,1.4,2.3,1.5C40.6,13.7,40.7,13.8,40.7,13.8z   M38.4,11.4c-0.1,0-0.2-0.1-0.1-0.2l0,0c0-0.1,0.1-0.2,0.2-0.1c1.7,0.3,2.6,1.4,2.8,1.9c0.1,0.1,0,0.2-0.1,0.3l0,0  c-0.1,0-0.2,0-0.2-0.1C40.8,12.8,40,11.8,38.4,11.4z M45.6,7c-0.1,0.1-0.2,0.1-0.2,0.1l-2.2-1.4c-0.1-0.1-0.1-0.2-0.1-0.2  c0.1-0.1,0.2-0.1,0.2-0.1l2.2,1.4C45.6,6.8,45.7,6.9,45.6,7z M45.1,10.8c0-0.1,0.2-0.1,0.2-0.1l2,1.1c0.1,0,0.1,0.2,0.1,0.2  c0,0.1-0.2,0.1-0.2,0.1l-2-1.1C45.1,11,45,10.9,45.1,10.8z M41.4,16.4c-0.1,0-0.2-0.1-0.2-0.2c0-0.1,0.1-0.2,0.2-0.2  c1.7,0.2,2.6,1.3,2.9,1.7c0.1,0.1,0,0.2-0.1,0.3l0,0c-0.1,0-0.2,0-0.2-0.1C43.8,17.6,43,16.6,41.4,16.4z M41,17.1L41,17.1  c0.1-0.1,0.2-0.1,0.2,0c1,1.1,2,1.4,2.4,1.4c0.1,0,0.1,0.1,0.1,0.2c0,0,0,0,0,0c0,0.1-0.1,0.2-0.2,0.2c-0.4-0.1-1.6-0.3-2.6-1.5  C40.9,17.3,40.9,17.2,41,17.1z M36.7,20.7c-0.1,0.1-0.2,0.1-0.3,0l0,0c-0.1-0.1-0.1-0.2,0-0.2C39.9,16.7,46.1,7.3,46.9,6  C47,5.9,47.1,5.9,47.2,6h0c0.1,0.1,0.1,0.2,0.1,0.2C46.4,7.5,40.1,16.9,36.7,20.7z M37.3,21.8c0.1-0.1,0.2,0,0.2,0  c0.8,1.2,1.9,1.9,2.3,2.1c0.1,0,0.1,0.2,0.1,0.2l0,0c0,0.1-0.2,0.1-0.2,0.1c-0.4-0.2-1.5-1-2.4-2.2C37.2,22,37.2,21.9,37.3,21.8z   M31.8,32.6c0-0.1,0.1-0.2,0.2-0.2c1.7,0,3-0.5,3.5-0.6c0.1,0,0.2,0,0.2,0.1l0,0c0,0.1,0,0.2-0.1,0.2c-0.5,0.2-1.8,0.6-3.6,0.6  C31.8,32.8,31.8,32.7,31.8,32.6z M22.8,33c5.3-5.6,12.6-3.7,13.8-3.3c0.1,0,0.1,0.1,0.1,0.2c0,0.1-0.1,0.1-0.2,0.1  c-1.1-0.4-8.2-2.3-13.5,3.2c-0.1,0.1-0.2,0.1-0.2,0l0,0C22.7,33.2,22.7,33.1,22.8,33z M10.5,39c0.1,0,0.2,0,0.2,0.1  c0.2,0.3,0.6,0.9,1.3,1.2c0.4,0.2,0.7,0.2,1.1,0.3c0.6,0.1,1.2,0.2,2.3,0.8c0.5,0.3,1.1,0.7,1.6,1.1c1.4,1,3,2.2,4.9,2.2  c0.1,0,0.2,0.1,0.2,0.2v0c0,0.1-0.1,0.2-0.2,0.2c0,0,0,0,0,0c-2,0-3.6-1.2-5-2.2c-0.6-0.4-1.1-0.8-1.6-1.1c-1-0.5-1.6-0.7-2.2-0.8  c-0.4-0.1-0.8-0.1-1.2-0.3c-0.7-0.4-1.2-1-1.4-1.3C10.4,39.1,10.4,39,10.5,39z M57.6,26.4c0,0,0,0.1,0,0.1c-1.8,2.2-4.6,3.6-7.6,3.6  c-3.1,0-5.8-1.4-7.6-3.6c0,0,0-0.1,0-0.1c1.4-1.1,3.2-1.8,5-2.2c-0.4,0.5-0.7,1.2-0.7,2c0,2,1.8,3.6,3.8,3.2  c1.3-0.2,2.3-1.2,2.6-2.4c0.3-1.1,0-2-0.6-2.8C54.5,24.5,56.2,25.3,57.6,26.4z M47.1,26.1c0,1.6,1.3,2.9,2.9,2.9s2.9-1.3,2.9-2.9  c0-0.8-0.3-1.5-0.9-2.1c-0.7-0.1-1.3-0.2-2-0.2c-0.7,0-1.4,0.1-2,0.2C47.4,24.6,47.1,25.3,47.1,26.1z M48.6,24.7  c0.3,0,0.6,0.3,0.6,0.6c0,0.3-0.3,0.6-0.6,0.6S48,25.6,48,25.3C48,25,48.3,24.7,48.6,24.7z M42.4,25.9C42.3,26,42.2,25.9,42.4,25.9  c1.8-2.3,4.5-3.7,7.6-3.7s5.9,1.4,7.7,3.6c0.1,0.1,0,0.1-0.1,0.1c-2.1-1.5-4.8-2.4-7.6-2.4S44.5,24.4,42.4,25.9z"/></svg>